<?xml version="1.0" encoding="UTF-8" standalone="no"?><svg xmlns="http://www.w3.org/2000/svg" xmlns:xlink="http://www.w3.org/1999/xlink" contentStyleType="text/css" height="451px" preserveAspectRatio="none" style="width:640px;height:451px;background:#FFFFFF;" version="1.1" viewBox="0 0 640 451" width="640px" zoomAndPan="magnify"><defs/><g><rect height="58.8906" style="stroke:#00000000;stroke-width:1.0;fill:none;" width="169" x="228.75" y="5"/><text fill="#000000" font-family="sans-serif" font-size="14" font-weight="bold" lengthAdjust="spacing" textLength="60" x="283.25" y="22.9951">Divorce</text><text fill="#000000" font-family="sans-serif" font-size="14" font-weight="bold" lengthAdjust="spacing" textLength="159" x="233.75" y="39.292">UML Class Notation</text><text fill="#000000" font-family="sans-serif" font-size="14" font-weight="bold" lengthAdjust="spacing" textLength="5" x="310.75" y="55.5889"> </text><!--MD5=[8827f00209e4e92b618c8b47a2af80d2]
class Divorce--><g id="elem_Divorce"><rect codeLine="3" fill="#F1F1F1" height="145.7813" id="Divorce" rx="2.5" ry="2.5" style="stroke:#181818;stroke-width:0.5;" width="183" x="178" y="76.8906"/><ellipse cx="237.75" cy="92.8906" fill="#ADD1B2" rx="11" ry="11" style="stroke:#181818;stroke-width:1.0;"/><path d="M240.0938,88.5625 C239.1563,88.125 238.5625,87.9844 237.6875,87.9844 C235.0625,87.9844 233.0625,90.0625 233.0625,92.7813 L233.0625,93.9063 C233.0625,96.4844 235.1719,98.375 238.0625,98.375 C239.2813,98.375 240.4375,98.0781 241.1875,97.5313 C241.7656,97.125 242.0938,96.6719 242.0938,96.2813 C242.0938,95.8281 241.7031,95.4375 241.2344,95.4375 C241.0156,95.4375 240.8125,95.5156 240.625,95.7031 C240.1719,96.1875 240.1719,96.1875 239.9844,96.2813 C239.5625,96.5469 238.875,96.6719 238.1094,96.6719 C236.0625,96.6719 234.7656,95.5781 234.7656,93.875 L234.7656,92.7813 C234.7656,91 236.0156,89.6875 237.75,89.6875 C238.3281,89.6875 238.9375,89.8438 239.4063,90.0938 C239.8906,90.375 240.0625,90.5938 240.1563,91 C240.2188,91.4063 240.25,91.5313 240.3906,91.6563 C240.5313,91.7969 240.7656,91.9063 240.9844,91.9063 C241.25,91.9063 241.5156,91.7656 241.6875,91.5469 C241.7969,91.3906 241.8281,91.2031 241.8281,90.7813 L241.8281,89.3594 C241.8281,88.9219 241.8125,88.7969 241.7188,88.6406 C241.5625,88.375 241.2813,88.2344 240.9844,88.2344 C240.6875,88.2344 240.4844,88.3281 240.2656,88.6406 L240.0938,88.5625 Z " fill="#000000"/><text fill="#000000" font-family="sans-serif" font-size="14" lengthAdjust="spacing" textLength="55" x="258.25" y="97.7373">Divorce</text><line style="stroke:#181818;stroke-width:0.5;" x1="179" x2="360" y1="108.8906" y2="108.8906"/><text fill="#000000" font-family="sans-serif" font-size="14" lengthAdjust="spacing" textLength="113" x="184" y="125.8857">divorce_id: text</text><line style="stroke:#181818;stroke-width:1.0;" x1="179" x2="360" y1="133.1875" y2="133.1875"/><text fill="#000000" font-family="sans-serif" font-size="14" lengthAdjust="spacing" textLength="122" x="184" y="150.1826">quantity: integer</text><text fill="#000000" font-family="sans-serif" font-size="14" lengthAdjust="spacing" textLength="171" x="184" y="166.4795">marriage_years: integer</text><text fill="#000000" font-family="sans-serif" font-size="14" lengthAdjust="spacing" textLength="97" x="184" y="182.7764">Time: time{}</text><text fill="#000000" font-family="sans-serif" font-size="14" lengthAdjust="spacing" textLength="132" x="184" y="199.0732">Woman: woman{}</text><text fill="#000000" font-family="sans-serif" font-size="14" lengthAdjust="spacing" textLength="87" x="184" y="215.3701">Man: man{}</text></g><!--MD5=[f2548571c0d60114f14940e76a5c3917]
class Woman--><g id="elem_Woman"><rect codeLine="14" fill="#F1F1F1" height="80.5938" id="Woman" rx="2.5" ry="2.5" style="stroke:#181818;stroke-width:0.5;" width="131" x="7" y="323.3906"/><ellipse cx="42.25" cy="339.3906" fill="#ADD1B2" rx="11" ry="11" style="stroke:#181818;stroke-width:1.0;"/><path d="M44.5938,335.0625 C43.6563,334.625 43.0625,334.4844 42.1875,334.4844 C39.5625,334.4844 37.5625,336.5625 37.5625,339.2813 L37.5625,340.4063 C37.5625,342.9844 39.6719,344.875 42.5625,344.875 C43.7813,344.875 44.9375,344.5781 45.6875,344.0313 C46.2656,343.625 46.5938,343.1719 46.5938,342.7813 C46.5938,342.3281 46.2031,341.9375 45.7344,341.9375 C45.5156,341.9375 45.3125,342.0156 45.125,342.2031 C44.6719,342.6875 44.6719,342.6875 44.4844,342.7813 C44.0625,343.0469 43.375,343.1719 42.6094,343.1719 C40.5625,343.1719 39.2656,342.0781 39.2656,340.375 L39.2656,339.2813 C39.2656,337.5 40.5156,336.1875 42.25,336.1875 C42.8281,336.1875 43.4375,336.3438 43.9063,336.5938 C44.3906,336.875 44.5625,337.0938 44.6563,337.5 C44.7188,337.9063 44.75,338.0313 44.8906,338.1563 C45.0313,338.2969 45.2656,338.4063 45.4844,338.4063 C45.75,338.4063 46.0156,338.2656 46.1875,338.0469 C46.2969,337.8906 46.3281,337.7031 46.3281,337.2813 L46.3281,335.8594 C46.3281,335.4219 46.3125,335.2969 46.2188,335.1406 C46.0625,334.875 45.7813,334.7344 45.4844,334.7344 C45.1875,334.7344 44.9844,334.8281 44.7656,335.1406 L44.5938,335.0625 Z " fill="#000000"/><text fill="#000000" font-family="sans-serif" font-size="14" lengthAdjust="spacing" textLength="54" x="60.75" y="344.2373">Woman</text><line style="stroke:#181818;stroke-width:0.5;" x1="8" x2="137" y1="355.3906" y2="355.3906"/><text fill="#000000" font-family="sans-serif" font-size="14" lengthAdjust="spacing" textLength="88" x="13" y="372.3857">age: integer</text><text fill="#000000" font-family="sans-serif" font-size="14" lengthAdjust="spacing" textLength="119" x="13" y="388.6826">citizenship: text</text><line style="stroke:#181818;stroke-width:0.5;" x1="8" x2="137" y1="395.9844" y2="395.9844"/></g><!--MD5=[cd37db4b61bc790e4317ef438aaee29d]
class Man--><g id="elem_Man"><rect codeLine="20" fill="#F1F1F1" height="80.5938" id="Man" rx="2.5" ry="2.5" style="stroke:#181818;stroke-width:0.5;" width="193" x="173" y="323.3906"/><ellipse cx="250.75" cy="339.3906" fill="#ADD1B2" rx="11" ry="11" style="stroke:#181818;stroke-width:1.0;"/><path d="M253.0938,335.0625 C252.1563,334.625 251.5625,334.4844 250.6875,334.4844 C248.0625,334.4844 246.0625,336.5625 246.0625,339.2813 L246.0625,340.4063 C246.0625,342.9844 248.1719,344.875 251.0625,344.875 C252.2813,344.875 253.4375,344.5781 254.1875,344.0313 C254.7656,343.625 255.0938,343.1719 255.0938,342.7813 C255.0938,342.3281 254.7031,341.9375 254.2344,341.9375 C254.0156,341.9375 253.8125,342.0156 253.625,342.2031 C253.1719,342.6875 253.1719,342.6875 252.9844,342.7813 C252.5625,343.0469 251.875,343.1719 251.1094,343.1719 C249.0625,343.1719 247.7656,342.0781 247.7656,340.375 L247.7656,339.2813 C247.7656,337.5 249.0156,336.1875 250.75,336.1875 C251.3281,336.1875 251.9375,336.3438 252.4063,336.5938 C252.8906,336.875 253.0625,337.0938 253.1563,337.5 C253.2188,337.9063 253.25,338.0313 253.3906,338.1563 C253.5313,338.2969 253.7656,338.4063 253.9844,338.4063 C254.25,338.4063 254.5156,338.2656 254.6875,338.0469 C254.7969,337.8906 254.8281,337.7031 254.8281,337.2813 L254.8281,335.8594 C254.8281,335.4219 254.8125,335.2969 254.7188,335.1406 C254.5625,334.875 254.2813,334.7344 253.9844,334.7344 C253.6875,334.7344 253.4844,334.8281 253.2656,335.1406 L253.0938,335.0625 Z " fill="#000000"/><text fill="#000000" font-family="sans-serif" font-size="14" lengthAdjust="spacing" textLength="29" x="271.25" y="344.2373">Man</text><line style="stroke:#181818;stroke-width:0.5;" x1="174" x2="365" y1="355.3906" y2="355.3906"/><text fill="#000000" font-family="sans-serif" font-size="14" lengthAdjust="spacing" textLength="181" x="179" y="372.3857">age_at_marriage: integer</text><text fill="#000000" font-family="sans-serif" font-size="14" lengthAdjust="spacing" textLength="119" x="179" y="388.6826">citizenship: text</text><line style="stroke:#181818;stroke-width:0.5;" x1="174" x2="365" y1="395.9844" y2="395.9844"/></g><!--MD5=[2e42295458bb0bec21c9622a623eb29e]
class Time--><g id="elem_Time"><rect codeLine="25" fill="#F1F1F1" height="162.0781" id="Time" rx="2.5" ry="2.5" style="stroke:#181818;stroke-width:0.5;" width="232" x="401.5" y="282.8906"/><ellipse cx="495.25" cy="298.8906" fill="#ADD1B2" rx="11" ry="11" style="stroke:#181818;stroke-width:1.0;"/><path d="M497.5938,294.5625 C496.6563,294.125 496.0625,293.9844 495.1875,293.9844 C492.5625,293.9844 490.5625,296.0625 490.5625,298.7813 L490.5625,299.9063 C490.5625,302.4844 492.6719,304.375 495.5625,304.375 C496.7813,304.375 497.9375,304.0781 498.6875,303.5313 C499.2656,303.125 499.5938,302.6719 499.5938,302.2813 C499.5938,301.8281 499.2031,301.4375 498.7344,301.4375 C498.5156,301.4375 498.3125,301.5156 498.125,301.7031 C497.6719,302.1875 497.6719,302.1875 497.4844,302.2813 C497.0625,302.5469 496.375,302.6719 495.6094,302.6719 C493.5625,302.6719 492.2656,301.5781 492.2656,299.875 L492.2656,298.7813 C492.2656,297 493.5156,295.6875 495.25,295.6875 C495.8281,295.6875 496.4375,295.8438 496.9063,296.0938 C497.3906,296.375 497.5625,296.5938 497.6563,297 C497.7188,297.4063 497.75,297.5313 497.8906,297.6563 C498.0313,297.7969 498.2656,297.9063 498.4844,297.9063 C498.75,297.9063 499.0156,297.7656 499.1875,297.5469 C499.2969,297.3906 499.3281,297.2031 499.3281,296.7813 L499.3281,295.3594 C499.3281,294.9219 499.3125,294.7969 499.2188,294.6406 C499.0625,294.375 498.7813,294.2344 498.4844,294.2344 C498.1875,294.2344 497.9844,294.3281 497.7656,294.6406 L497.5938,294.5625 Z " fill="#000000"/><text fill="#000000" font-family="sans-serif" font-size="14" lengthAdjust="spacing" textLength="36" x="515.75" y="303.7373">Time</text><line style="stroke:#181818;stroke-width:0.5;" x1="402.5" x2="632.5" y1="314.8906" y2="314.8906"/><text fill="#000000" font-family="sans-serif" font-size="14" lengthAdjust="spacing" textLength="135" x="407.5" y="331.8857">divorce_date: date</text><text fill="#000000" font-family="sans-serif" font-size="14" lengthAdjust="spacing" textLength="103" x="407.5" y="348.1826">weekday: text</text><text fill="#000000" font-family="sans-serif" font-size="14" lengthAdjust="spacing" textLength="71" x="407.5" y="364.4795">year: text</text><text fill="#000000" font-family="sans-serif" font-size="14" lengthAdjust="spacing" textLength="110" x="407.5" y="380.7764">month: integer</text><text fill="#000000" font-family="sans-serif" font-size="14" lengthAdjust="spacing" textLength="168" x="407.5" y="397.0732">calendar_week: integer</text><text fill="#000000" font-family="sans-serif" font-size="14" lengthAdjust="spacing" textLength="125" x="407.5" y="413.3701">day_of_year: text</text><text fill="#000000" font-family="sans-serif" font-size="14" lengthAdjust="spacing" textLength="220" x="407.5" y="429.667">startdate_wedding_week: text</text><line style="stroke:#181818;stroke-width:0.5;" x1="402.5" x2="632.5" y1="436.9688" y2="436.9688"/></g><!--MD5=[63b56297e72ecad85b1a15b130b2e25a]
reverse link Divorce to Woman--><g id="link_Divorce_Woman"><path codeLine="35" d="M193.665,232.4996 C164.779,263.5856 133.142,297.6306 109.442,323.1356 " fill="none" id="Divorce-backto-Woman" style="stroke:#181818;stroke-width:1.0;"/><polygon fill="none" points="202.53,222.9596,195.5156,224.6322,194.3616,231.7504,201.3761,230.0778,202.53,222.9596" style="stroke:#181818;stroke-width:1.0;"/></g><!--MD5=[410ae6026fb0493dfb08368f9457d454]
reverse link Divorce to Man--><g id="link_Divorce_Man"><path codeLine="36" d="M269.5,236.1296 C269.5,266.2146 269.5,298.6206 269.5,323.1356 " fill="none" id="Divorce-backto-Man" style="stroke:#181818;stroke-width:1.0;"/><polygon fill="none" points="269.5,222.9596,265.5,228.9596,269.5,234.9596,273.5,228.9596,269.5,222.9596" style="stroke:#181818;stroke-width:1.0;"/></g><!--MD5=[e0da03b0f6246af484bc856cd8d6a048]
reverse link Divorce to Time--><g id="link_Divorce_Time"><path codeLine="37" d="M363.93,231.6126 C383.49,248.3336 404.092,265.9446 423.631,282.6476 " fill="none" id="Divorce-backto-Time" style="stroke:#181818;stroke-width:1.0;"/><polygon fill="none" points="353.808,222.9596,355.7696,229.8988,362.9294,230.7571,360.9678,223.8179,353.808,222.9596" style="stroke:#181818;stroke-width:1.0;"/></g><!--MD5=[3fd804adeec020292647a49684d6a088]
@startuml
title Divorce\nUML Class Notation\n

class Divorce      {
  divorce_id: text
  - -
  quantity: integer
  marriage_years: integer
  Time: time{}
  Woman: woman{}
  Man: man{}
}


class Woman    {
  age: integer
  citizenship: text
}


class Man      {
  age_at_marriage: integer
  citizenship: text
}

class Time    {
  divorce_date: date
  weekday: text
  year: text
  month: integer
  calendar_week: integer
  day_of_year: text
  startdate_wedding_week: text
}

Divorce o- - Woman
Divorce o- - Man
Divorce o- - Time
@enduml

PlantUML version 1.2022.6beta2(Unknown compile time)
(GPL source distribution)
Java Runtime: Java(TM) SE Runtime Environment
JVM: Java HotSpot(TM) 64-Bit Server VM
Default Encoding: UTF-8
Language: en
Country: US
--></g></svg>