<?xml version="1.0" encoding="UTF-8" standalone="no"?><svg xmlns="http://www.w3.org/2000/svg" xmlns:xlink="http://www.w3.org/1999/xlink" contentStyleType="text/css" height="434px" preserveAspectRatio="none" style="width:702px;height:434px;background:#FFFFFF;" version="1.1" viewBox="0 0 702 434" width="702px" zoomAndPan="magnify"><defs/><g><rect height="58.8906" style="stroke:#00000000;stroke-width:1.0;fill:none;" width="169" x="259.75" y="5"/><text fill="#000000" font-family="sans-serif" font-size="14" font-weight="bold" lengthAdjust="spacing" textLength="72" x="308.25" y="22.9951">Marriage</text><text fill="#000000" font-family="sans-serif" font-size="14" font-weight="bold" lengthAdjust="spacing" textLength="159" x="264.75" y="39.292">UML Class Notation</text><text fill="#000000" font-family="sans-serif" font-size="14" font-weight="bold" lengthAdjust="spacing" textLength="5" x="341.75" y="55.5889"> </text><!--MD5=[317bdb7d281f517675c1cd82e256b3ea]
class Marriage--><g id="elem_Marriage"><rect codeLine="3" fill="#F1F1F1" height="129.4844" id="Marriage" rx="2.5" ry="2.5" style="stroke:#181818;stroke-width:0.5;" width="144" x="259.5" y="76.8906"/><ellipse cx="297" cy="92.8906" fill="#ADD1B2" rx="11" ry="11" style="stroke:#181818;stroke-width:1.0;"/><path d="M299.3438,88.5625 C298.4063,88.125 297.8125,87.9844 296.9375,87.9844 C294.3125,87.9844 292.3125,90.0625 292.3125,92.7813 L292.3125,93.9063 C292.3125,96.4844 294.4219,98.375 297.3125,98.375 C298.5313,98.375 299.6875,98.0781 300.4375,97.5313 C301.0156,97.125 301.3438,96.6719 301.3438,96.2813 C301.3438,95.8281 300.9531,95.4375 300.4844,95.4375 C300.2656,95.4375 300.0625,95.5156 299.875,95.7031 C299.4219,96.1875 299.4219,96.1875 299.2344,96.2813 C298.8125,96.5469 298.125,96.6719 297.3594,96.6719 C295.3125,96.6719 294.0156,95.5781 294.0156,93.875 L294.0156,92.7813 C294.0156,91 295.2656,89.6875 297,89.6875 C297.5781,89.6875 298.1875,89.8438 298.6563,90.0938 C299.1406,90.375 299.3125,90.5938 299.4063,91 C299.4688,91.4063 299.5,91.5313 299.6406,91.6563 C299.7813,91.7969 300.0156,91.9063 300.2344,91.9063 C300.5,91.9063 300.7656,91.7656 300.9375,91.5469 C301.0469,91.3906 301.0781,91.2031 301.0781,90.7813 L301.0781,89.3594 C301.0781,88.9219 301.0625,88.7969 300.9688,88.6406 C300.8125,88.375 300.5313,88.2344 300.2344,88.2344 C299.9375,88.2344 299.7344,88.3281 299.5156,88.6406 L299.3438,88.5625 Z " fill="#000000"/><text fill="#000000" font-family="sans-serif" font-size="14" lengthAdjust="spacing" textLength="62" x="316" y="97.7373">Marriage</text><line style="stroke:#181818;stroke-width:0.5;" x1="260.5" x2="402.5" y1="108.8906" y2="108.8906"/><text fill="#000000" font-family="sans-serif" font-size="14" lengthAdjust="spacing" textLength="124" x="265.5" y="125.8857">marriage_id: text</text><line style="stroke:#181818;stroke-width:1.0;" x1="260.5" x2="402.5" y1="133.1875" y2="133.1875"/><text fill="#000000" font-family="sans-serif" font-size="14" lengthAdjust="spacing" textLength="122" x="265.5" y="150.1826">quantity: integer</text><text fill="#000000" font-family="sans-serif" font-size="14" lengthAdjust="spacing" textLength="97" x="265.5" y="166.4795">Time: time{}</text><text fill="#000000" font-family="sans-serif" font-size="14" lengthAdjust="spacing" textLength="132" x="265.5" y="182.7764">Woman: woman{}</text><text fill="#000000" font-family="sans-serif" font-size="14" lengthAdjust="spacing" textLength="87" x="265.5" y="199.0732">Man: man{}</text></g><!--MD5=[f2548571c0d60114f14940e76a5c3917]
class Woman--><g id="elem_Woman"><rect codeLine="13" fill="#F1F1F1" height="96.8906" id="Woman" rx="2.5" ry="2.5" style="stroke:#181818;stroke-width:0.5;" width="193" x="7" y="298.3906"/><ellipse cx="72.25" cy="314.3906" fill="#ADD1B2" rx="11" ry="11" style="stroke:#181818;stroke-width:1.0;"/><path d="M74.5938,310.0625 C73.6563,309.625 73.0625,309.4844 72.1875,309.4844 C69.5625,309.4844 67.5625,311.5625 67.5625,314.2813 L67.5625,315.4063 C67.5625,317.9844 69.6719,319.875 72.5625,319.875 C73.7813,319.875 74.9375,319.5781 75.6875,319.0313 C76.2656,318.625 76.5938,318.1719 76.5938,317.7813 C76.5938,317.3281 76.2031,316.9375 75.7344,316.9375 C75.5156,316.9375 75.3125,317.0156 75.125,317.2031 C74.6719,317.6875 74.6719,317.6875 74.4844,317.7813 C74.0625,318.0469 73.375,318.1719 72.6094,318.1719 C70.5625,318.1719 69.2656,317.0781 69.2656,315.375 L69.2656,314.2813 C69.2656,312.5 70.5156,311.1875 72.25,311.1875 C72.8281,311.1875 73.4375,311.3438 73.9063,311.5938 C74.3906,311.875 74.5625,312.0938 74.6563,312.5 C74.7188,312.9063 74.75,313.0313 74.8906,313.1563 C75.0313,313.2969 75.2656,313.4063 75.4844,313.4063 C75.75,313.4063 76.0156,313.2656 76.1875,313.0469 C76.2969,312.8906 76.3281,312.7031 76.3281,312.2813 L76.3281,310.8594 C76.3281,310.4219 76.3125,310.2969 76.2188,310.1406 C76.0625,309.875 75.7813,309.7344 75.4844,309.7344 C75.1875,309.7344 74.9844,309.8281 74.7656,310.1406 L74.5938,310.0625 Z " fill="#000000"/><text fill="#000000" font-family="sans-serif" font-size="14" lengthAdjust="spacing" textLength="54" x="92.75" y="319.2373">Woman</text><line style="stroke:#181818;stroke-width:0.5;" x1="8" x2="199" y1="330.3906" y2="330.3906"/><text fill="#000000" font-family="sans-serif" font-size="14" lengthAdjust="spacing" textLength="181" x="13" y="347.3857">age_at_marriage: integer</text><text fill="#000000" font-family="sans-serif" font-size="14" lengthAdjust="spacing" textLength="119" x="13" y="363.6826">citizenship: text</text><text fill="#000000" font-family="sans-serif" font-size="14" lengthAdjust="spacing" textLength="134" x="13" y="379.9795">name_choice: text</text><line style="stroke:#181818;stroke-width:0.5;" x1="8" x2="199" y1="387.2813" y2="387.2813"/></g><!--MD5=[cd37db4b61bc790e4317ef438aaee29d]
class Man--><g id="elem_Man"><rect codeLine="20" fill="#F1F1F1" height="96.8906" id="Man" rx="2.5" ry="2.5" style="stroke:#181818;stroke-width:0.5;" width="193" x="235" y="298.3906"/><ellipse cx="312.75" cy="314.3906" fill="#ADD1B2" rx="11" ry="11" style="stroke:#181818;stroke-width:1.0;"/><path d="M315.0938,310.0625 C314.1563,309.625 313.5625,309.4844 312.6875,309.4844 C310.0625,309.4844 308.0625,311.5625 308.0625,314.2813 L308.0625,315.4063 C308.0625,317.9844 310.1719,319.875 313.0625,319.875 C314.2813,319.875 315.4375,319.5781 316.1875,319.0313 C316.7656,318.625 317.0938,318.1719 317.0938,317.7813 C317.0938,317.3281 316.7031,316.9375 316.2344,316.9375 C316.0156,316.9375 315.8125,317.0156 315.625,317.2031 C315.1719,317.6875 315.1719,317.6875 314.9844,317.7813 C314.5625,318.0469 313.875,318.1719 313.1094,318.1719 C311.0625,318.1719 309.7656,317.0781 309.7656,315.375 L309.7656,314.2813 C309.7656,312.5 311.0156,311.1875 312.75,311.1875 C313.3281,311.1875 313.9375,311.3438 314.4063,311.5938 C314.8906,311.875 315.0625,312.0938 315.1563,312.5 C315.2188,312.9063 315.25,313.0313 315.3906,313.1563 C315.5313,313.2969 315.7656,313.4063 315.9844,313.4063 C316.25,313.4063 316.5156,313.2656 316.6875,313.0469 C316.7969,312.8906 316.8281,312.7031 316.8281,312.2813 L316.8281,310.8594 C316.8281,310.4219 316.8125,310.2969 316.7188,310.1406 C316.5625,309.875 316.2813,309.7344 315.9844,309.7344 C315.6875,309.7344 315.4844,309.8281 315.2656,310.1406 L315.0938,310.0625 Z " fill="#000000"/><text fill="#000000" font-family="sans-serif" font-size="14" lengthAdjust="spacing" textLength="29" x="333.25" y="319.2373">Man</text><line style="stroke:#181818;stroke-width:0.5;" x1="236" x2="427" y1="330.3906" y2="330.3906"/><text fill="#000000" font-family="sans-serif" font-size="14" lengthAdjust="spacing" textLength="181" x="241" y="347.3857">age_at_marriage: integer</text><text fill="#000000" font-family="sans-serif" font-size="14" lengthAdjust="spacing" textLength="119" x="241" y="363.6826">citizenship: text</text><text fill="#000000" font-family="sans-serif" font-size="14" lengthAdjust="spacing" textLength="134" x="241" y="379.9795">name_choice: text</text><line style="stroke:#181818;stroke-width:0.5;" x1="236" x2="427" y1="387.2813" y2="387.2813"/></g><!--MD5=[2e42295458bb0bec21c9622a623eb29e]
class Time--><g id="elem_Time"><rect codeLine="26" fill="#F1F1F1" height="162.0781" id="Time" rx="2.5" ry="2.5" style="stroke:#181818;stroke-width:0.5;" width="232" x="463.5" y="265.8906"/><ellipse cx="557.25" cy="281.8906" fill="#ADD1B2" rx="11" ry="11" style="stroke:#181818;stroke-width:1.0;"/><path d="M559.5938,277.5625 C558.6563,277.125 558.0625,276.9844 557.1875,276.9844 C554.5625,276.9844 552.5625,279.0625 552.5625,281.7813 L552.5625,282.9063 C552.5625,285.4844 554.6719,287.375 557.5625,287.375 C558.7813,287.375 559.9375,287.0781 560.6875,286.5313 C561.2656,286.125 561.5938,285.6719 561.5938,285.2813 C561.5938,284.8281 561.2031,284.4375 560.7344,284.4375 C560.5156,284.4375 560.3125,284.5156 560.125,284.7031 C559.6719,285.1875 559.6719,285.1875 559.4844,285.2813 C559.0625,285.5469 558.375,285.6719 557.6094,285.6719 C555.5625,285.6719 554.2656,284.5781 554.2656,282.875 L554.2656,281.7813 C554.2656,280 555.5156,278.6875 557.25,278.6875 C557.8281,278.6875 558.4375,278.8438 558.9063,279.0938 C559.3906,279.375 559.5625,279.5938 559.6563,280 C559.7188,280.4063 559.75,280.5313 559.8906,280.6563 C560.0313,280.7969 560.2656,280.9063 560.4844,280.9063 C560.75,280.9063 561.0156,280.7656 561.1875,280.5469 C561.2969,280.3906 561.3281,280.2031 561.3281,279.7813 L561.3281,278.3594 C561.3281,277.9219 561.3125,277.7969 561.2188,277.6406 C561.0625,277.375 560.7813,277.2344 560.4844,277.2344 C560.1875,277.2344 559.9844,277.3281 559.7656,277.6406 L559.5938,277.5625 Z " fill="#000000"/><text fill="#000000" font-family="sans-serif" font-size="14" lengthAdjust="spacing" textLength="36" x="577.75" y="286.7373">Time</text><line style="stroke:#181818;stroke-width:0.5;" x1="464.5" x2="694.5" y1="297.8906" y2="297.8906"/><text fill="#000000" font-family="sans-serif" font-size="14" lengthAdjust="spacing" textLength="142" x="469.5" y="314.8857">wedding_date: date</text><text fill="#000000" font-family="sans-serif" font-size="14" lengthAdjust="spacing" textLength="103" x="469.5" y="331.1826">weekday: text</text><text fill="#000000" font-family="sans-serif" font-size="14" lengthAdjust="spacing" textLength="71" x="469.5" y="347.4795">year: text</text><text fill="#000000" font-family="sans-serif" font-size="14" lengthAdjust="spacing" textLength="110" x="469.5" y="363.7764">month: integer</text><text fill="#000000" font-family="sans-serif" font-size="14" lengthAdjust="spacing" textLength="168" x="469.5" y="380.0732">calendar_week: integer</text><text fill="#000000" font-family="sans-serif" font-size="14" lengthAdjust="spacing" textLength="125" x="469.5" y="396.3701">day_of_year: text</text><text fill="#000000" font-family="sans-serif" font-size="14" lengthAdjust="spacing" textLength="220" x="469.5" y="412.667">startdate_wedding_week: text</text><line style="stroke:#181818;stroke-width:0.5;" x1="464.5" x2="694.5" y1="419.9688" y2="419.9688"/></g><!--MD5=[bf4f68f17e04fa78d1735cad21c6cad6]
reverse link Marriage to Woman--><g id="link_Marriage_Woman"><path codeLine="36" d="M250.346,214.8236 C219.272,242.5586 184.638,273.4716 156.812,298.3076 " fill="none" id="Marriage-backto-Woman" style="stroke:#181818;stroke-width:1.0;"/><polygon fill="none" points="260.297,205.9426,253.1571,206.9534,251.344,213.9329,258.4839,212.9221,260.297,205.9426" style="stroke:#181818;stroke-width:1.0;"/></g><!--MD5=[8a40639ffa10fe4ded41474af66dc45c]
reverse link Marriage to Man--><g id="link_Marriage_Man"><path codeLine="37" d="M331.5,219.1706 C331.5,245.7546 331.5,274.7616 331.5,298.3076 " fill="none" id="Marriage-backto-Man" style="stroke:#181818;stroke-width:1.0;"/><polygon fill="none" points="331.5,205.9426,327.5,211.9426,331.5,217.9426,335.5,211.9426,331.5,205.9426" style="stroke:#181818;stroke-width:1.0;"/></g><!--MD5=[229dde8e8ad3849a16273a8e7468b684]
reverse link Marriage to Time--><g id="link_Marriage_Time"><path codeLine="38" d="M413.767,209.8966 C435.576,227.7916 459.334,247.2866 481.874,265.7816 " fill="none" id="Marriage-backto-Time" style="stroke:#181818;stroke-width:1.0;"/><polygon fill="none" points="403.565,201.5246,405.6658,208.4229,412.8414,209.137,410.7407,202.2387,403.565,201.5246" style="stroke:#181818;stroke-width:1.0;"/></g><!--MD5=[811a0a508ff03ff65da85bc6d3f1f5ae]
@startuml
title Marriage\nUML Class Notation\n

class Marriage      {
  marriage_id: text
  - -
  quantity: integer
  Time: time{}
  Woman: woman{}
  Man: man{}
}


class Woman    {
  age_at_marriage: integer
  citizenship: text
  name_choice: text
}


class Man      {
  age_at_marriage: integer
  citizenship: text
  name_choice: text
}

class Time    {
  wedding_date: date
  weekday: text
  year: text
  month: integer
  calendar_week: integer
  day_of_year: text
  startdate_wedding_week: text
}

Marriage o- - Woman
Marriage o- - Man
Marriage o- - Time
@enduml

PlantUML version 1.2022.6beta2(Unknown compile time)
(GPL source distribution)
Java Runtime: Java(TM) SE Runtime Environment
JVM: Java HotSpot(TM) 64-Bit Server VM
Default Encoding: UTF-8
Language: en
Country: US
--></g></svg>