<svg xmlns="http://www.w3.org/2000/svg" width="400" height="400" id="SYSCDDpV">        
    <text x="20" y="20" font-family="sans-serif" font-size="14px" fill="#666" style="cursor: pointer" id="SYSCDDpV_svg_txt">[save svg]</text>
<defs><marker id="end" viewBox="0 -5 20 20" refX="34" refY="0" markerWidth="15" markerHeight="15" orient="auto"><path d="M0,-5 L20,0 L0,5 z" fill="#999" stroke="none"/></marker></defs><g class="everything" transform="translate(-30,64) scale(1)"><g class="links_SYSCDDpV"><line stroke-width="0.5" stroke="#999999" marker-end="url(#end)" x1="235.0377632451963" y1="253.47290273616233" x2="179.75886515911503" y2="170.95508487909999"/><line stroke-width="0.5" stroke="#999999" marker-end="url(#end)" x1="179.75886515911503" y1="170.95508487909999" x2="174.1429524730134" y2="220.0080404135208"/><line stroke-width="0.5" stroke="#999999" marker-end="url(#end)" x1="273.34859996725595" y1="205.5543731902676" x2="235.0377632451963" y2="253.47290273616233"/><line stroke-width="0.5" stroke="#999999" marker-end="url(#end)" x1="271.4507040015762" y1="158.68598009625362" x2="239.4273366353023" y2="215.27360584667434"/><line stroke-width="0.5" stroke="#999999" marker-end="url(#end)" x1="199.6412289836835" y1="258.04645394339866" x2="146.37191764339906" y2="197.63856489992818"/><line stroke-width="0.5" stroke="#999999" marker-end="url(#end)" x1="239.4273366353023" y1="215.27360584667434" x2="199.6412289836835" y2="258.04645394339866"/><line stroke-width="0.5" stroke="#999999" marker-end="url(#end)" x1="271.4507040015762" y1="158.68598009625362" x2="273.34859996725595" y2="205.5543731902676"/><line stroke-width="0.5" stroke="#999999" marker-end="url(#end)" x1="314.2221263967277" y1="230.97939278937005" x2="271.4507040015762" y2="158.68598009625362"/><line stroke-width="0.5" stroke="#999999" marker-end="url(#end)" x1="131.1008835582675" y1="234.8363071825942" x2="135.83512134686984" y2="268.5067175207285"/><line stroke-width="0.5" stroke="#999999" marker-end="url(#end)" x1="174.1429524730134" y1="220.0080404135208" x2="131.1008835582675" y2="234.8363071825942"/><line stroke-width="0.5" stroke="#999999" marker-end="url(#end)" x1="199.6412289836835" y1="258.04645394339866" x2="179.75886515911503" y2="170.95508487909999"/><line stroke-width="0.5" stroke="#999999" marker-end="url(#end)" x1="235.0377632451963" y1="253.47290273616233" x2="199.6412289836835" y2="258.04645394339866"/><line stroke-width="0.5" stroke="#999999" marker-end="url(#end)" x1="273.34859996725595" y1="205.5543731902676" x2="239.4273366353023" y2="215.27360584667434"/><line stroke-width="0.5" stroke="#999999" marker-end="url(#end)" x1="239.4273366353023" y1="215.27360584667434" x2="235.0377632451963" y2="253.47290273616233"/><line stroke-width="0.5" stroke="#999999" marker-end="url(#end)" x1="146.37191764339906" y1="197.63856489992818" x2="174.1429524730134" y2="220.0080404135208"/><line stroke-width="0.5" stroke="#999999" marker-end="url(#end)" x1="293.9879597933257" y1="256.2549174381108" x2="314.2221263967277" y2="230.97939278937005"/><line stroke-width="0.5" stroke="#999999" marker-end="url(#end)" x1="179.75886515911503" y1="170.95508487909999" x2="146.37191764339906" y2="197.63856489992818"/><line stroke-width="0.5" stroke="#999999" marker-end="url(#end)" x1="174.1429524730134" y1="220.0080404135208" x2="174.1429524730134" y2="220.0080404135208"/><line stroke-width="0.5" stroke="#999999" marker-end="url(#end)" x1="273.34859996725595" y1="205.5543731902676" x2="273.34859996725595" y2="205.5543731902676"/><line stroke-width="0.5" stroke="#999999" marker-end="url(#end)" x1="318.68446054904666" y1="165.10157358800416" x2="318.68446054904666" y2="165.10157358800416"/><line stroke-width="0.5" stroke="#999999" marker-end="url(#end)" x1="131.1008835582675" y1="234.8363071825942" x2="131.1008835582675" y2="234.8363071825942"/><line stroke-width="0.5" stroke="#999999" marker-end="url(#end)" x1="141.44528230614765" y1="153.47117623819892" x2="141.44528230614765" y2="153.47117623819892"/><line stroke-width="0.5" stroke="#999999" marker-end="url(#end)" x1="199.6412289836835" y1="258.04645394339866" x2="199.6412289836835" y2="258.04645394339866"/><line stroke-width="0.5" stroke="#999999" marker-end="url(#end)" x1="239.4273366353023" y1="215.27360584667434" x2="239.4273366353023" y2="215.27360584667434"/><line stroke-width="0.5" stroke="#999999" marker-end="url(#end)" x1="239.4273366353023" y1="215.27360584667434" x2="216.18435194413235" y2="198.81336147810757"/><line stroke-width="0.5" stroke="#999999" marker-end="url(#end)" x1="293.9879597933257" y1="256.2549174381108" x2="293.9879597933257" y2="256.2549174381108"/><line stroke-width="0.5" stroke="#999999" marker-end="url(#end)" x1="135.83512134686984" y1="268.5067175207285" x2="135.83512134686984" y2="268.5067175207285"/><line stroke-width="0.5" stroke="#999999" marker-end="url(#end)" x1="314.2221263967277" y1="230.97939278937005" x2="314.2221263967277" y2="230.97939278937005"/><line stroke-width="0.5" stroke="#999999" marker-end="url(#end)" x1="271.4507040015762" y1="158.68598009625362" x2="271.4507040015762" y2="158.68598009625362"/><line stroke-width="0.5" stroke="#999999" marker-end="url(#end)" x1="179.75886515911503" y1="170.95508487909999" x2="179.75886515911503" y2="170.95508487909999"/><line stroke-width="0.5" stroke="#999999" marker-end="url(#end)" x1="235.0377632451963" y1="253.47290273616233" x2="235.0377632451963" y2="253.47290273616233"/><line stroke-width="0.5" stroke="#999999" marker-end="url(#end)" x1="146.37191764339906" y1="197.63856489992818" x2="146.37191764339906" y2="197.63856489992818"/><line stroke-width="0.5" stroke="#999999" marker-end="url(#end)" x1="101.47113104252898" y1="179.52010679663422" x2="141.44528230614765" y2="153.47117623819892"/><line stroke-width="0.5" stroke="#999999" marker-end="url(#end)" x1="199.6412289836835" y1="258.04645394339866" x2="207.33252894950905" y2="303.63633311041565"/><line stroke-width="0.5" stroke="#999999" marker-end="url(#end)" x1="235.0377632451963" y1="253.47290273616233" x2="239.4273366353023" y2="215.27360584667434"/><line stroke-width="0.5" stroke="#999999" marker-end="url(#end)" x1="273.34859996725595" y1="205.5543731902676" x2="241.18579334758664" y2="169.4359380760072"/><line stroke-width="0.5" stroke="#999999" marker-end="url(#end)" x1="318.68446054904666" y1="165.10157358800416" x2="337.0607254767938" y2="197.16013430253005"/><line stroke-width="0.5" stroke="#999999" marker-end="url(#end)" x1="273.34859996725595" y1="205.5543731902676" x2="271.4507040015762" y2="158.68598009625362"/><line stroke-width="0.5" stroke="#999999" marker-end="url(#end)" x1="146.37191764339906" y1="197.63856489992818" x2="179.75886515911503" y2="170.95508487909999"/><line stroke-width="0.5" stroke="#999999" marker-end="url(#end)" x1="271.4507040015762" y1="158.68598009625362" x2="314.2221263967277" y2="230.97939278937005"/><line stroke-width="0.5" stroke="#999999" marker-end="url(#end)" x1="314.2221263967277" y1="230.97939278937005" x2="293.9879597933257" y2="256.2549174381108"/><line stroke-width="0.5" stroke="#999999" marker-end="url(#end)" x1="179.75886515911503" y1="170.95508487909999" x2="199.6412289836835" y2="258.04645394339866"/><line stroke-width="0.5" stroke="#999999" marker-end="url(#end)" x1="174.1429524730134" y1="220.0080404135208" x2="146.37191764339906" y2="197.63856489992818"/><line stroke-width="0.5" stroke="#999999" marker-end="url(#end)" x1="235.0377632451963" y1="253.47290273616233" x2="216.18435194413235" y2="198.81336147810757"/><line stroke-width="0.5" stroke="#999999" marker-end="url(#end)" x1="131.1008835582675" y1="234.8363071825942" x2="174.1429524730134" y2="220.0080404135208"/><line stroke-width="0.5" stroke="#999999" marker-end="url(#end)" x1="293.9879597933257" y1="256.2549174381108" x2="318.68446054904666" y2="165.10157358800416"/><line stroke-width="0.5" stroke="#999999" marker-end="url(#end)" x1="239.4273366353023" y1="215.27360584667434" x2="273.34859996725595" y2="205.5543731902676"/><line stroke-width="0.5" stroke="#999999" marker-end="url(#end)" x1="135.83512134686984" y1="268.5067175207285" x2="131.1008835582675" y2="234.8363071825942"/><line stroke-width="0.5" stroke="#999999" marker-end="url(#end)" x1="199.6412289836835" y1="258.04645394339866" x2="235.0377632451963" y2="253.47290273616233"/><line stroke-width="0.5" stroke="#999999" marker-end="url(#end)" x1="293.9879597933257" y1="256.2549174381108" x2="337.0607254767938" y2="197.16013430253005"/><line stroke-width="0.5" stroke="#999999" marker-end="url(#end)" x1="131.1008835582675" y1="234.8363071825942" x2="146.37191764339906" y2="197.63856489992818"/><line stroke-width="0.5" stroke="#999999" marker-end="url(#end)" x1="135.83512134686984" y1="268.5067175207285" x2="174.1429524730134" y2="220.0080404135208"/><line stroke-width="0.5" stroke="#999999" marker-end="url(#end)" x1="58.706840020528766" y1="180.64248768447305" x2="101.47113104252898" y2="179.52010679663422"/><line stroke-width="0.5" stroke="#999999" marker-end="url(#end)" x1="239.4273366353023" y1="215.27360584667434" x2="271.4507040015762" y2="158.68598009625362"/><line stroke-width="0.5" stroke="#999999" marker-end="url(#end)" x1="146.37191764339906" y1="197.63856489992818" x2="199.6412289836835" y2="258.04645394339866"/><line stroke-width="0.5" stroke="#999999" marker-end="url(#end)" x1="271.4507040015762" y1="158.68598009625362" x2="293.9879597933257" y2="256.2549174381108"/><line stroke-width="0.5" stroke="#999999" marker-end="url(#end)" x1="174.1429524730134" y1="220.0080404135208" x2="179.75886515911503" y2="170.95508487909999"/><line stroke-width="0.5" stroke="#999999" marker-end="url(#end)" x1="314.2221263967277" y1="230.97939278937005" x2="318.68446054904666" y2="165.10157358800416"/><line stroke-width="0.5" stroke="#999999" marker-end="url(#end)" x1="141.44528230614765" y1="153.47117623819892" x2="131.1008835582675" y2="234.8363071825942"/><line stroke-width="0.5" stroke="#999999" marker-end="url(#end)" x1="239.4273366353023" y1="215.27360584667434" x2="241.18579334758664" y2="169.4359380760072"/><line stroke-width="0.5" stroke="#999999" marker-end="url(#end)" x1="235.0377632451963" y1="253.47290273616233" x2="273.34859996725595" y2="205.5543731902676"/><line stroke-width="0.5" stroke="#999999" marker-end="url(#end)" x1="179.75886515911503" y1="170.95508487909999" x2="235.0377632451963" y2="253.47290273616233"/><line stroke-width="0.5" stroke="#999999" marker-end="url(#end)" x1="199.6412289836835" y1="258.04645394339866" x2="239.4273366353023" y2="215.27360584667434"/><line stroke-width="0.5" stroke="#999999" marker-end="url(#end)" x1="273.34859996725595" y1="205.5543731902676" x2="314.2221263967277" y2="230.97939278937005"/><line stroke-width="0.5" stroke="#999999" marker-end="url(#end)" x1="239.4273366353023" y1="215.27360584667434" x2="314.2221263967277" y2="230.97939278937005"/><line stroke-width="0.5" stroke="#999999" marker-end="url(#end)" x1="235.0377632451963" y1="253.47290273616233" x2="241.18579334758664" y2="169.4359380760072"/><line stroke-width="0.5" stroke="#999999" marker-end="url(#end)" x1="199.6412289836835" y1="258.04645394339866" x2="273.34859996725595" y2="205.5543731902676"/><line stroke-width="0.5" stroke="#999999" marker-end="url(#end)" x1="174.1429524730134" y1="220.0080404135208" x2="199.6412289836835" y2="258.04645394339866"/><line stroke-width="0.5" stroke="#999999" marker-end="url(#end)" x1="273.34859996725595" y1="205.5543731902676" x2="293.9879597933257" y2="256.2549174381108"/><line stroke-width="0.5" stroke="#999999" marker-end="url(#end)" x1="135.83512134686984" y1="268.5067175207285" x2="146.37191764339906" y2="197.63856489992818"/><line stroke-width="0.5" stroke="#999999" marker-end="url(#end)" x1="101.47113104252898" y1="179.52010679663422" x2="131.1008835582675" y2="234.8363071825942"/><line stroke-width="0.5" stroke="#999999" marker-end="url(#end)" x1="157.65912293091324" y1="52.09092446970229" x2="118.26650465410002" y2="40.93099171526654"/><line stroke-width="0.5" stroke="#999999" marker-end="url(#end)" x1="314.2221263967277" y1="230.97939278937005" x2="337.0607254767938" y2="197.16013430253005"/><line stroke-width="0.5" stroke="#999999" marker-end="url(#end)" x1="235.0377632451963" y1="253.47290273616233" x2="271.4507040015762" y2="158.68598009625362"/><line stroke-width="0.5" stroke="#999999" marker-end="url(#end)" x1="271.4507040015762" y1="158.68598009625362" x2="318.68446054904666" y2="165.10157358800416"/><line stroke-width="0.5" stroke="#999999" marker-end="url(#end)" x1="179.75886515911503" y1="170.95508487909999" x2="239.4273366353023" y2="215.27360584667434"/><line stroke-width="0.5" stroke="#999999" marker-end="url(#end)" x1="131.1008835582675" y1="234.8363071825942" x2="179.75886515911503" y2="170.95508487909999"/><line stroke-width="0.5" stroke="#999999" marker-end="url(#end)" x1="146.37191764339906" y1="197.63856489992818" x2="235.0377632451963" y2="253.47290273616233"/><line stroke-width="0.5" stroke="#999999" marker-end="url(#end)" x1="107.69038485371472" y1="288.98618174132025" x2="135.83512134686984" y2="268.5067175207285"/><line stroke-width="0.5" stroke="#999999" marker-end="url(#end)" x1="141.44528230614765" y1="153.47117623819892" x2="174.1429524730134" y2="220.0080404135208"/><line stroke-width="0.5" stroke="#999999" marker-end="url(#end)" x1="273.34859996725595" y1="205.5543731902676" x2="318.68446054904666" y2="165.10157358800416"/><line stroke-width="0.5" stroke="#999999" marker-end="url(#end)" x1="174.1429524730134" y1="220.0080404135208" x2="235.0377632451963" y2="253.47290273616233"/><line stroke-width="0.5" stroke="#999999" marker-end="url(#end)" x1="135.83512134686984" y1="268.5067175207285" x2="179.75886515911503" y2="170.95508487909999"/><line stroke-width="0.5" stroke="#999999" marker-end="url(#end)" x1="199.6412289836835" y1="258.04645394339866" x2="271.4507040015762" y2="158.68598009625362"/><line stroke-width="0.5" stroke="#999999" marker-end="url(#end)" x1="235.0377632451963" y1="253.47290273616233" x2="314.2221263967277" y2="230.97939278937005"/><line stroke-width="0.5" stroke="#999999" marker-end="url(#end)" x1="179.75886515911503" y1="170.95508487909999" x2="273.34859996725595" y2="205.5543731902676"/><line stroke-width="0.5" stroke="#999999" marker-end="url(#end)" x1="131.1008835582675" y1="234.8363071825942" x2="199.6412289836835" y2="258.04645394339866"/><line stroke-width="0.5" stroke="#999999" marker-end="url(#end)" x1="271.4507040015762" y1="158.68598009625362" x2="337.0607254767938" y2="197.16013430253005"/><line stroke-width="0.5" stroke="#999999" marker-end="url(#end)" x1="141.44528230614765" y1="153.47117623819892" x2="146.37191764339906" y2="197.63856489992818"/><line stroke-width="0.5" stroke="#999999" marker-end="url(#end)" x1="146.37191764339906" y1="197.63856489992818" x2="239.4273366353023" y2="215.27360584667434"/><line stroke-width="0.5" stroke="#999999" marker-end="url(#end)" x1="107.69038485371472" y1="288.98618174132025" x2="131.1008835582675" y2="234.8363071825942"/><line stroke-width="0.5" stroke="#999999" marker-end="url(#end)" x1="239.4273366353023" y1="215.27360584667434" x2="293.9879597933257" y2="256.2549174381108"/><line stroke-width="0.5" stroke="#999999" marker-end="url(#end)" x1="239.4273366353023" y1="215.27360584667434" x2="318.68446054904666" y2="165.10157358800416"/><line stroke-width="0.5" stroke="#999999" marker-end="url(#end)" x1="174.1429524730134" y1="220.0080404135208" x2="239.4273366353023" y2="215.27360584667434"/><line stroke-width="0.5" stroke="#999999" marker-end="url(#end)" x1="179.75886515911503" y1="170.95508487909999" x2="271.4507040015762" y2="158.68598009625362"/><line stroke-width="0.5" stroke="#999999" marker-end="url(#end)" x1="199.6412289836835" y1="258.04645394339866" x2="314.2221263967277" y2="230.97939278937005"/><line stroke-width="0.5" stroke="#999999" marker-end="url(#end)" x1="273.34859996725595" y1="205.5543731902676" x2="337.0607254767938" y2="197.16013430253005"/><line stroke-width="0.5" stroke="#999999" marker-end="url(#end)" x1="135.83512134686984" y1="268.5067175207285" x2="199.6412289836835" y2="258.04645394339866"/><line stroke-width="0.5" stroke="#999999" marker-end="url(#end)" x1="235.0377632451963" y1="253.47290273616233" x2="293.9879597933257" y2="256.2549174381108"/><line stroke-width="0.5" stroke="#999999" marker-end="url(#end)" x1="141.44528230614765" y1="153.47117623819892" x2="179.75886515911503" y2="170.95508487909999"/><line stroke-width="0.5" stroke="#999999" marker-end="url(#end)" x1="101.47113104252898" y1="179.52010679663422" x2="146.37191764339906" y2="197.63856489992818"/><line stroke-width="0.5" stroke="#999999" marker-end="url(#end)" x1="131.1008835582675" y1="234.8363071825942" x2="235.0377632451963" y2="253.47290273616233"/><line stroke-width="0.5" stroke="#999999" marker-end="url(#end)" x1="146.37191764339906" y1="197.63856489992818" x2="273.34859996725595" y2="205.5543731902676"/><line stroke-width="0.5" stroke="#999999" marker-end="url(#end)" x1="141.44528230614765" y1="153.47117623819892" x2="199.6412289836835" y2="258.04645394339866"/><line stroke-width="0.5" stroke="#999999" marker-end="url(#end)" x1="174.1429524730134" y1="220.0080404135208" x2="273.34859996725595" y2="205.5543731902676"/><line stroke-width="0.5" stroke="#999999" marker-end="url(#end)" x1="199.6412289836835" y1="258.04645394339866" x2="293.9879597933257" y2="256.2549174381108"/><line stroke-width="0.5" stroke="#999999" marker-end="url(#end)" x1="101.47113104252898" y1="179.52010679663422" x2="179.75886515911503" y2="170.95508487909999"/><line stroke-width="0.5" stroke="#999999" marker-end="url(#end)" x1="146.37191764339906" y1="197.63856489992818" x2="271.4507040015762" y2="158.68598009625362"/><line stroke-width="0.5" stroke="#999999" marker-end="url(#end)" x1="131.1008835582675" y1="234.8363071825942" x2="239.4273366353023" y2="215.27360584667434"/><line stroke-width="0.5" stroke="#999999" marker-end="url(#end)" x1="135.83512134686984" y1="268.5067175207285" x2="235.0377632451963" y2="253.47290273616233"/><line stroke-width="0.5" stroke="#999999" marker-end="url(#end)" x1="179.75886515911503" y1="170.95508487909999" x2="314.2221263967277" y2="230.97939278937005"/><line stroke-width="0.5" stroke="#999999" marker-end="url(#end)" x1="235.0377632451963" y1="253.47290273616233" x2="318.68446054904666" y2="165.10157358800416"/><line stroke-width="0.5" stroke="#999999" marker-end="url(#end)" x1="174.1429524730134" y1="220.0080404135208" x2="271.4507040015762" y2="158.68598009625362"/><line stroke-width="0.5" stroke="#999999" marker-end="url(#end)" x1="179.75886515911503" y1="170.95508487909999" x2="293.9879597933257" y2="256.2549174381108"/></g><g class="nodes_SYSCDDpV"><g><circle id="CH_28" r="5" fill="#99ccff" cx="235.0377632451963" cy="253.47290273616233"><title>CH_28</title></circle><text x="0" y="-7" id="CH_28" class="label_SYSCDDpV" transform="translate(235.0377632451963,253.47290273616233)" cx="235.0377632451963" cy="253.47290273616233">CH_28</text></g><g><circle id="CH_30" r="5" fill="#99ccff" cx="179.75886515911503" cy="170.95508487909999"><title>CH_30</title></circle><text x="0" y="-7" id="CH_30" class="label_SYSCDDpV" transform="translate(179.75886515911503,170.95508487909999)" cx="179.75886515911503" cy="170.95508487909999">CH_30</text></g><g><circle id="CH_32" r="5" fill="#99ccff" cx="174.1429524730134" cy="220.0080404135208"><title>CH_32</title></circle><text x="0" y="-7" id="CH_32" class="label_SYSCDDpV" transform="translate(174.1429524730134,220.0080404135208)" cx="174.1429524730134" cy="220.0080404135208">CH_32</text></g><g><circle id="CH_26" r="5" fill="#99ccff" cx="273.34859996725595" cy="205.5543731902676"><title>CH_26</title></circle><text x="0" y="-7" id="CH_26" class="label_SYSCDDpV" transform="translate(273.34859996725595,205.5543731902676)" cx="273.34859996725595" cy="205.5543731902676">CH_26</text></g><g><circle id="CH_25" r="5" fill="#99ccff" cx="271.4507040015762" cy="158.68598009625362"><title>CH_25</title></circle><text x="0" y="-7" id="CH_25" class="label_SYSCDDpV" transform="translate(271.4507040015762,158.68598009625362)" cx="271.4507040015762" cy="158.68598009625362">CH_25</text></g><g><circle id="CH_27" r="5" fill="#99ccff" cx="239.4273366353023" cy="215.27360584667434"><title>CH_27</title></circle><text x="0" y="-7" id="CH_27" class="label_SYSCDDpV" transform="translate(239.4273366353023,215.27360584667434)" cx="239.4273366353023" cy="215.27360584667434">CH_27</text></g><g><circle id="CH_29" r="5" fill="#99ccff" cx="199.6412289836835" cy="258.04645394339866"><title>CH_29</title></circle><text x="0" y="-7" id="CH_29" class="label_SYSCDDpV" transform="translate(199.6412289836835,258.04645394339866)" cx="199.6412289836835" cy="258.04645394339866">CH_29</text></g><g><circle id="CH_31" r="5" fill="#99ccff" cx="146.37191764339906" cy="197.63856489992818"><title>CH_31</title></circle><text x="0" y="-7" id="CH_31" class="label_SYSCDDpV" transform="translate(146.37191764339906,197.63856489992818)" cx="146.37191764339906" cy="197.63856489992818">CH_31</text></g><g><circle id="CH_24" r="5" fill="#99ccff" cx="314.2221263967277" cy="230.97939278937005"><title>CH_24</title></circle><text x="0" y="-7" id="CH_24" class="label_SYSCDDpV" transform="translate(314.2221263967277,230.97939278937005)" cx="314.2221263967277" cy="230.97939278937005">CH_24</text></g><g><circle id="CH_33" r="5" fill="#99ccff" cx="131.1008835582675" cy="234.8363071825942"><title>CH_33</title></circle><text x="0" y="-7" id="CH_33" class="label_SYSCDDpV" transform="translate(131.1008835582675,234.8363071825942)" cx="131.1008835582675" cy="234.8363071825942">CH_33</text></g><g><circle id="CH_34" r="5" fill="#99ccff" cx="135.83512134686984" cy="268.5067175207285"><title>CH_34</title></circle><text x="0" y="-7" id="CH_34" class="label_SYSCDDpV" transform="translate(135.83512134686984,268.5067175207285)" cx="135.83512134686984" cy="268.5067175207285">CH_34</text></g><g><circle id="CH_23" r="5" fill="#99ccff" cx="293.9879597933257" cy="256.2549174381108"><title>CH_23</title></circle><text x="0" y="-7" id="CH_23" class="label_SYSCDDpV" transform="translate(293.9879597933257,256.2549174381108)" cx="293.9879597933257" cy="256.2549174381108">CH_23</text></g><g><circle id="CH_22" r="5" fill="#99ccff" cx="318.68446054904666" cy="165.10157358800416"><title>CH_22</title></circle><text x="0" y="-7" id="CH_22" class="label_SYSCDDpV" transform="translate(318.68446054904666,165.10157358800416)" cx="318.68446054904666" cy="165.10157358800416">CH_22</text></g><g><circle id="CH_35" r="5" fill="#99ccff" cx="141.44528230614765" cy="153.47117623819892"><title>CH_35</title></circle><text x="0" y="-7" id="CH_35" class="label_SYSCDDpV" transform="translate(141.44528230614765,153.47117623819892)" cx="141.44528230614765" cy="153.47117623819892">CH_35</text></g><g><circle id="Ausl_27" r="5" fill="#99ccff" cx="216.18435194413235" cy="198.81336147810757"><title>Ausl_27</title></circle><text x="0" y="-7" id="Ausl_27" class="label_SYSCDDpV" transform="translate(216.18435194413235,198.81336147810757)" cx="216.18435194413235" cy="198.81336147810757">Ausl_27</text></g><g><circle id="CH_36" r="5" fill="#99ccff" cx="101.47113104252898" cy="179.52010679663422"><title>CH_36</title></circle><text x="0" y="-7" id="CH_36" class="label_SYSCDDpV" transform="translate(101.47113104252898,179.52010679663422)" cx="101.47113104252898" cy="179.52010679663422">CH_36</text></g><g><circle id="Ausl_28" r="5" fill="#99ccff" cx="207.33252894950905" cy="303.63633311041565"><title>Ausl_28</title></circle><text x="0" y="-7" id="Ausl_28" class="label_SYSCDDpV" transform="translate(207.33252894950905,303.63633311041565)" cx="207.33252894950905" cy="303.63633311041565">Ausl_28</text></g><g><circle id="Ausl_25" r="5" fill="#99ccff" cx="241.18579334758664" cy="169.4359380760072"><title>Ausl_25</title></circle><text x="0" y="-7" id="Ausl_25" class="label_SYSCDDpV" transform="translate(241.18579334758664,169.4359380760072)" cx="241.18579334758664" cy="169.4359380760072">Ausl_25</text></g><g><circle id="CH_21" r="5" fill="#99ccff" cx="337.0607254767938" cy="197.16013430253005"><title>CH_21</title></circle><text x="0" y="-7" id="CH_21" class="label_SYSCDDpV" transform="translate(337.0607254767938,197.16013430253005)" cx="337.0607254767938" cy="197.16013430253005">CH_21</text></g><g><circle id="CH_38" r="5" fill="#99ccff" cx="58.706840020528766" cy="180.64248768447305"><title>CH_38</title></circle><text x="0" y="-7" id="CH_38" class="label_SYSCDDpV" transform="translate(58.706840020528766,180.64248768447305)" cx="58.706840020528766" cy="180.64248768447305">CH_38</text></g><g><circle id="Ausl_24" r="5" fill="#99ccff" cx="157.65912293091324" cy="52.09092446970229"><title>Ausl_24</title></circle><text x="0" y="-7" id="Ausl_24" class="label_SYSCDDpV" transform="translate(157.65912293091324,52.09092446970229)" cx="157.65912293091324" cy="52.09092446970229">Ausl_24</text></g><g><circle id="Ausl_21" r="5" fill="#99ccff" cx="118.26650465410002" cy="40.93099171526654"><title>Ausl_21</title></circle><text x="0" y="-7" id="Ausl_21" class="label_SYSCDDpV" transform="translate(118.26650465410002,40.93099171526654)" cx="118.26650465410002" cy="40.93099171526654">Ausl_21</text></g><g><circle id="CH_37" r="5" fill="#99ccff" cx="107.69038485371472" cy="288.98618174132025"><title>CH_37</title></circle><text x="0" y="-7" id="CH_37" class="label_SYSCDDpV" transform="translate(107.69038485371472,288.98618174132025)" cx="107.69038485371472" cy="288.98618174132025">CH_37</text></g></g></g></svg>